 0
SECTION
 2
HEADER
 9
$ACADVER
 1
AC1009
 9
$LIMMIN
10
0.0
20
0.0
 9
$LIMMAX
10
410
20
287
 9
$LTSCALE
40
1.0
 9
$ATTMODE
70
0
 9
$DIMSCALE
40
1.0
 9
$DIMEXO
40
0.0
 9
$LUNITS
70
2
 9
$LUPREC
70
4
 9
$AUNITS
70
0
 9
$AUPREC
70
0
 9
$ELEVATION
40
0.0
 9
$THICKNESS
40
0.0
 9
$LIMCHECK
70
0
 9
$BLIPMODE
70
1
 9
$ANGBASE
50
0.0
 9
$ANGDIR
70
0
 9
$PDMODE
70
67
 9
$PDSIZE
40
-1
 9
$COORDS
70
2
 9
$DWGCODEPAGE
 3
iso8859-1
 0
ENDSEC
0
SECTION
2
TABLES
0
TABLE
2
LTYPE
70
10
0
LTYPE
2
CONTINUOUS
70
64
3
Default-Style
72
65
73
0
40
0
0
LTYPE
2
DASHED_LINE_WIDE
70
64
3
Dashed Line Wide
72
65
73
2
40
6.25
49
5
49
-1.25
0
LTYPE
2
DASHED_LINE_NARROW
70
64
3
Dashed Line Narrow
72
65
73
2
40
12.5
49
10
49
-2.5
0
LTYPE
2
DASH-DOT_LINE_WIDE
70
64
3
Dash-Dot Line Wide
72
65
73
4
40
13.75
49
10
49
-1.25
49
1.25
49
-1.25
0
LTYPE
2
DASH-DOT_LINE_NARROW
70
64
3
Dash-Dot line Narrow
72
65
73
4
40
27.5
49
20
49
-2.5
49
2.5
49
-2.5
0
LTYPE
2
DASH-DOT-DOT_LINE_WIDE
70
64
3
Dash-Dot-Dot Line Wide
72
65
73
6
40
16.25
49
10
49
-1.25
49
1.25
49
-1.25
49
1.25
49
-1.25
0
LTYPE
2
DASH-DOT-DOT_LINE_NARROW
70
64
3
Dash-Dot-Dot Line Narrow
72
65
73
6
40
32.5
49
20
49
-2.5
49
2.5
49
-2.5
49
2.5
49
-2.5
0
LTYPE
2
DOTTED_LINE_WIDE
70
64
3
Dotted Line Wide
72
65
73
2
40
6.25
49
1.25
49
-5
0
LTYPE
2
DOTTED_LINE_NARROW
70
64
3
Dotted Line Narrow
72
65
73
2
40
12.5
49
2.5
49
-10
0
LTYPE
2
GEOMETRY_LINE_1
70
64
3
Geometry Line 1
72
65
73
2
40
.5
49
.25
49
-0.25
0
ENDTAB
0
TABLE
2
LAYER
70
17
0
LAYER
2
0
70
64
62
7
6
CONTINUOUS
0
LAYER
2
DRAWING
70
64
62
18
6
CONTINUOUS
0
LAYER
2
HATCHING
70
64
62
18
6
CONTINUOUS
0
LAYER
2
DIMENSION
70
64
62
18
6
CONTINUOUS
0
LAYER
2
TEXT
70
64
62
18
6
CONTINUOUS
0
LAYER
2
BLOCK
70
64
62
18
6
CONTINUOUS
0
LAYER
2
MARKING
70
64
62
18
6
CONTINUOUS
0
LAYER
2
GEOMETRY
70
64
62
18
6
CONTINUOUS
0
LAYER
2
DOCUMENTATION$DRAWING
70
64
62
18
6
CONTINUOUS
0
LAYER
2
DOCUMENTATION$HATCHING
70
64
62
18
6
CONTINUOUS
0
LAYER
2
DOCUMENTATION$DIMENSION
70
64
62
18
6
CONTINUOUS
0
LAYER
2
DOCUMENTATION$TEXT
70
64
62
18
6
CONTINUOUS
0
LAYER
2
DOCUMENTATION$BLOCK
70
64
62
18
6
CONTINUOUS
0
LAYER
2
DOCUMENTATION$MARKING
70
64
62
18
6
CONTINUOUS
0
LAYER
2
DOCUMENTATION$GEOMETRY
70
64
62
18
6
CONTINUOUS
0
LAYER
2
DEFAULT
70
64
62
18
6
CONTINUOUS
0
LAYER
2
LAYER1
70
64
62
18
6
CONTINUOUS
0
ENDTAB
0
ENDSEC
0
SECTION
2
BLOCKS
0
ENDSEC
0
SECTION
2
ENTITIES
0
LINE
8
DRAWING
62
18
6
CONTINUOUS
10
-8.729141818
20
20.73769715
11
-8.985959541
21
21.44329805
0
LINE
8
DRAWING
62
18
6
CONTINUOUS
10
-15.2954203
20
16.50151865
11
-15.77807974
21
17.07672977
0
LINE
8
DRAWING
62
18
6
CONTINUOUS
10
-20.01684536
20
10.27501346
11
-20.66713067
21
10.65045586
0
LINE
8
DRAWING
62
18
6
CONTINUOUS
10
-22.32394346
20
2.809190008
11
-23.06342062
21
2.939579784
0
LINE
8
DRAWING
62
18
6
CONTINUOUS
10
-21.9384445
20
-4.99546322
11
-22.67792167
21
-5.125852995
0
LINE
8
DRAWING
62
18
6
CONTINUOUS
10
-18.90684536
20
-12.19758986
11
-19.55713067
21
-12.57303225
0
LINE
8
DRAWING
62
18
6
CONTINUOUS
10
-13.59480164
20
-17.92850714
11
-14.07746108
21
-18.50371826
0
LINE
8
DRAWING
62
18
6
CONTINUOUS
10
-6.6430242
20
-21.49698187
11
-6.899841923
21
-22.20258277
0
LINE
8
DRAWING
62
18
6
CONTINUOUS
10
1.11
20
-22.47260332
11
1.11
21
-23.22348811
0
LINE
8
DRAWING
62
18
6
CONTINUOUS
10
8.729141818
20
-20.73769715
11
8.985959541
21
-21.44329805
0
LINE
8
DRAWING
62
18
6
CONTINUOUS
10
15.2954203
20
-16.50151865
11
15.77807974
21
-17.07672977
0
LINE
8
DRAWING
62
18
6
CONTINUOUS
10
20.01684536
20
-10.27501346
11
20.66713067
21
-10.65045586
0
LINE
8
DRAWING
62
18
6
CONTINUOUS
10
22.32394346
20
-2.809190008
11
23.06342062
21
-2.939579784
0
LINE
8
DRAWING
62
18
6
CONTINUOUS
10
21.9384445
20
4.99546322
11
22.67792167
21
5.125852995
0
LINE
8
DRAWING
62
18
6
CONTINUOUS
10
18.90684536
20
12.19758986
11
19.55713067
21
12.57303225
0
LINE
8
DRAWING
62
18
6
CONTINUOUS
10
13.59480164
20
17.92850714
11
14.07746108
21
18.50371826
0
LINE
8
DRAWING
62
18
6
CONTINUOUS
10
6.6430242
20
21.49698187
11
6.899841923
21
22.20258277
0
LINE
8
DRAWING
62
18
6
CONTINUOUS
10
-1.11
20
22.47260332
11
-1.11
21
23.22348811
0
LINE
8
DRAWING
62
18
6
CONTINUOUS
10
-6.6430242
20
21.49698187
11
-6.899841923
21
22.20258277
0
LINE
8
DRAWING
62
18
6
CONTINUOUS
10
-13.59480164
20
17.92850714
11
-14.07746108
21
18.50371826
0
LINE
8
DRAWING
62
18
6
CONTINUOUS
10
-18.90684536
20
12.19758986
11
-19.55713067
21
12.57303225
0
LINE
8
DRAWING
62
18
6
CONTINUOUS
10
-21.9384445
20
4.99546322
11
-22.67792167
21
5.125852995
0
LINE
8
DRAWING
62
18
6
CONTINUOUS
10
-22.32394346
20
-2.809190008
11
-23.06342062
21
-2.939579784
0
LINE
8
DRAWING
62
18
6
CONTINUOUS
10
-20.01684536
20
-10.27501346
11
-20.66713067
21
-10.65045586
0
LINE
8
DRAWING
62
18
6
CONTINUOUS
10
-15.2954203
20
-16.50151865
11
-15.77807974
21
-17.07672977
0
LINE
8
DRAWING
62
18
6
CONTINUOUS
10
-8.729141818
20
-20.73769715
11
-8.985959541
21
-21.44329805
0
LINE
8
DRAWING
62
18
6
CONTINUOUS
10
-1.11
20
-22.47260332
11
-1.11
21
-23.22348811
0
LINE
8
DRAWING
62
18
6
CONTINUOUS
10
6.6430242
20
-21.49698187
11
6.899841923
21
-22.20258277
0
LINE
8
DRAWING
62
18
6
CONTINUOUS
10
13.59480164
20
-17.92850714
11
14.07746108
21
-18.50371826
0
LINE
8
DRAWING
62
18
6
CONTINUOUS
10
18.90684536
20
-12.19758986
11
19.55713067
21
-12.57303225
0
LINE
8
DRAWING
62
18
6
CONTINUOUS
10
21.9384445
20
-4.99546322
11
22.67792167
21
-5.125852995
0
LINE
8
DRAWING
62
18
6
CONTINUOUS
10
22.32394346
20
2.809190008
11
23.06342062
21
2.939579784
0
LINE
8
DRAWING
62
18
6
CONTINUOUS
10
20.01684536
20
10.27501346
11
20.66713067
21
10.65045586
0
LINE
8
DRAWING
62
18
6
CONTINUOUS
10
15.2954203
20
16.50151865
11
15.77807974
21
17.07672977
0
LINE
8
DRAWING
62
18
6
CONTINUOUS
10
8.729141818
20
20.73769715
11
8.985959541
21
21.44329805
0
LINE
8
DRAWING
62
18
6
CONTINUOUS
10
1.11
20
22.47260332
11
1.11
21
23.22348811
0
ARC
8
DRAWING
62
18
6
CONTINUOUS
10
-9.434535948
20
22.87465377
40
1.5
50
210
51
287.4006092
0
ARC
8
DRAWING
62
18
6
CONTINUOUS
10
-16.68915617
20
18.26834201
40
1.5
50
230
51
307.4006092
0
ARC
8
DRAWING
62
18
6
CONTINUOUS
10
-21.93081786
20
11.4585986
40
1.5
50
250
51
327.4006092
0
ARC
8
DRAWING
62
18
6
CONTINUOUS
10
-24.52729924
20
3.266779081
40
1.5
50
270
51
347.4006092
0
ARC
8
DRAWING
62
18
6
CONTINUOUS
10
-24.16542635
20
-5.319062206
40
1.5
50
290
51
7.400609196
0
ARC
8
DRAWING
62
18
6
CONTINUOUS
10
-20.88884641
20
-13.26334609
40
1.5
50
310
51
27.4006092
0
ARC
8
DRAWING
62
18
6
CONTINUOUS
10
-15.09276329
20
-19.60787469
40
1.5
50
330
51
47.4006092
0
ARC
8
DRAWING
62
18
6
CONTINUOUS
10
-7.476270183
20
-23.58740422
40
1.5
50
350
51
67.4006092
0
ARC
8
DRAWING
62
18
6
CONTINUOUS
10
1.04197145
20
-24.72194469
40
1.5
50
10
51
87.4006092
0
ARC
8
DRAWING
62
18
6
CONTINUOUS
10
9.434535948
20
-22.87465377
40
1.5
50
30
51
107.4006092
0
ARC
8
DRAWING
62
18
6
CONTINUOUS
10
16.68915617
20
-18.26834201
40
1.5
50
50
51
127.4006092
0
ARC
8
DRAWING
62
18
6
CONTINUOUS
10
21.93081786
20
-11.4585986
40
1.5
50
70
51
147.4006092
0
ARC
8
DRAWING
62
18
6
CONTINUOUS
10
24.52729924
20
-3.266779081
40
1.5
50
90
51
167.4006092
0
ARC
8
DRAWING
62
18
6
CONTINUOUS
10
24.16542635
20
5.319062206
40
1.5
50
110
51
187.4006092
0
ARC
8
DRAWING
62
18
6
CONTINUOUS
10
20.88884641
20
13.26334609
40
1.5
50
130
51
207.4006092
0
ARC
8
DRAWING
62
18
6
CONTINUOUS
10
15.09276329
20
19.60787469
40
1.5
50
150
51
227.4006092
0
ARC
8
DRAWING
62
18
6
CONTINUOUS
10
7.476270183
20
23.58740422
40
1.5
50
170
51
247.4006092
0
ARC
8
DRAWING
62
18
6
CONTINUOUS
10
-1.04197145
20
24.72194469
40
1.5
50
190
51
267.4006092
0
ARC
8
DRAWING
62
18
6
CONTINUOUS
10
-7.476270149
20
23.58740423
40
1.5
50
292.5993894
51
10
0
ARC
8
DRAWING
62
18
6
CONTINUOUS
10
-15.09276327
20
19.60787471
40
1.5
50
312.5993894
51
30
0
ARC
8
DRAWING
62
18
6
CONTINUOUS
10
-20.88884639
20
13.26334612
40
1.5
50
332.5993894
51
50
0
ARC
8
DRAWING
62
18
6
CONTINUOUS
10
-24.16542635
20
5.319062242
40
1.5
50
352.5993894
51
70
0
ARC
8
DRAWING
62
18
6
CONTINUOUS
10
-24.52729925
20
-3.266779045
40
1.5
50
12.5993894
51
90
0
ARC
8
DRAWING
62
18
6
CONTINUOUS
10
-21.93081788
20
-11.45859857
40
1.5
50
32.5993894
51
110
0
ARC
8
DRAWING
62
18
6
CONTINUOUS
10
-16.6891562
20
-18.26834199
40
1.5
50
52.5993894
51
130
0
ARC
8
DRAWING
62
18
6
CONTINUOUS
10
-9.434535983
20
-22.87465376
40
1.5
50
72.5993894
51
150
0
ARC
8
DRAWING
62
18
6
CONTINUOUS
10
-1.041971487
20
-24.72194469
40
1.5
50
92.5993894
51
170
0
ARC
8
DRAWING
62
18
6
CONTINUOUS
10
7.476270149
20
-23.58740423
40
1.5
50
112.5993894
51
190
0
ARC
8
DRAWING
62
18
6
CONTINUOUS
10
15.09276327
20
-19.60787471
40
1.5
50
132.5993894
51
210
0
ARC
8
DRAWING
62
18
6
CONTINUOUS
10
20.88884639
20
-13.26334612
40
1.5
50
152.5993894
51
230
0
ARC
8
DRAWING
62
18
6
CONTINUOUS
10
24.16542635
20
-5.319062242
40
1.5
50
172.5993894
51
250
0
ARC
8
DRAWING
62
18
6
CONTINUOUS
10
24.52729925
20
3.266779045
40
1.5
50
192.5993894
51
270
0
ARC
8
DRAWING
62
18
6
CONTINUOUS
10
21.93081788
20
11.45859857
40
1.5
50
212.5993894
51
290
0
ARC
8
DRAWING
62
18
6
CONTINUOUS
10
16.6891562
20
18.26834199
40
1.5
50
232.5993894
51
310
0
ARC
8
DRAWING
62
18
6
CONTINUOUS
10
9.434535983
20
22.87465376
40
1.5
50
252.5993894
51
330
0
ARC
8
DRAWING
62
18
6
CONTINUOUS
10
1.041971487
20
24.72194469
40
1.5
50
272.5993894
51
350
0
ARC
8
DRAWING
62
18
6
CONTINUOUS
10
-12.77430216
20
28.65929853
40
1.5
50
110
51
210
0
ARC
8
DRAWING
62
18
6
CONTINUOUS
10
-21.80597486
20
22.56186269
40
1.5
50
130
51
230
0
ARC
8
DRAWING
62
18
6
CONTINUOUS
10
-28.20752518
20
13.74313323
40
1.5
50
150
51
250
0
ARC
8
DRAWING
62
18
6
CONTINUOUS
10
-31.20683166
20
3.266779081
40
1.5
50
170
51
270
0
ARC
8
DRAWING
62
18
6
CONTINUOUS
10
-30.44213368
20
-7.603596841
40
1.5
50
190
51
290
0
ARC
8
DRAWING
62
18
6
CONTINUOUS
10
-26.0056651
20
-17.55686677
40
1.5
50
210
51
310
0
ARC
8
DRAWING
62
18
6
CONTINUOUS
10
-18.4325295
20
-25.39251945
40
1.5
50
230
51
330
0
ARC
8
DRAWING
62
18
6
CONTINUOUS
10
-8.636158815
20
-30.16545953
40
1.5
50
250
51
350
0
ARC
8
DRAWING
62
18
6
CONTINUOUS
10
2.201860082
20
-31.3
40
1.5
50
270
51
10
0
ARC
8
DRAWING
62
18
6
CONTINUOUS
10
12.77430216
20
-28.65929853
40
1.5
50
290
51
30
0
ARC
8
DRAWING
62
18
6
CONTINUOUS
10
21.80597486
20
-22.56186269
40
1.5
50
310
51
50
0
ARC
8
DRAWING
62
18
6
CONTINUOUS
10
28.20752518
20
-13.74313323
40
1.5
50
330
51
70
0
ARC
8
DRAWING
62
18
6
CONTINUOUS
10
31.20683166
20
-3.266779081
40
1.5
50
350
51
90
0
ARC
8
DRAWING
62
18
6
CONTINUOUS
10
30.44213368
20
7.603596841
40
1.5
50
10
51
110
0
ARC
8
DRAWING
62
18
6
CONTINUOUS
10
26.0056651
20
17.55686677
40
1.5
50
30
51
130
0
ARC
8
DRAWING
62
18
6
CONTINUOUS
10
18.4325295
20
25.39251945
40
1.5
50
50
51
150
0
ARC
8
DRAWING
62
18
6
CONTINUOUS
10
8.636158815
20
30.16545953
40
1.5
50
70
51
170
0
ARC
8
DRAWING
62
18
6
CONTINUOUS
10
-2.201860082
20
31.3
40
1.5
50
90
51
190
0
ARC
8
DRAWING
62
18
6
CONTINUOUS
10
-8.636158781
20
30.16545954
40
1.5
50
10
51
110
0
ARC
8
DRAWING
62
18
6
CONTINUOUS
10
-18.43252947
20
25.39251947
40
1.5
50
30
51
130
0
ARC
8
DRAWING
62
18
6
CONTINUOUS
10
-26.00566508
20
17.5568668
40
1.5
50
50
51
150
0
ARC
8
DRAWING
62
18
6
CONTINUOUS
10
-30.44213367
20
7.603596877
40
1.5
50
70
51
170
0
ARC
8
DRAWING
62
18
6
CONTINUOUS
10
-31.20683167
20
-3.266779045
40
1.5
50
90
51
190
0
ARC
8
DRAWING
62
18
6
CONTINUOUS
10
-28.2075252
20
-13.7431332
40
1.5
50
110
51
210
0
ARC
8
DRAWING
62
18
6
CONTINUOUS
10
-21.80597489
20
-22.56186267
40
1.5
50
130
51
230
0
ARC
8
DRAWING
62
18
6
CONTINUOUS
10
-12.77430219
20
-28.65929852
40
1.5
50
150
51
250
0
ARC
8
DRAWING
62
18
6
CONTINUOUS
10
-2.201860119
20
-31.3
40
1.5
50
170
51
270
0
ARC
8
DRAWING
62
18
6
CONTINUOUS
10
8.636158781
20
-30.16545954
40
1.5
50
190
51
290
0
ARC
8
DRAWING
62
18
6
CONTINUOUS
10
18.43252947
20
-25.39251947
40
1.5
50
210
51
310
0
ARC
8
DRAWING
62
18
6
CONTINUOUS
10
26.00566508
20
-17.5568668
40
1.5
50
230
51
330
0
ARC
8
DRAWING
62
18
6
CONTINUOUS
10
30.44213367
20
-7.603596877
40
1.5
50
250
51
350
0
ARC
8
DRAWING
62
18
6
CONTINUOUS
10
31.20683167
20
3.266779045
40
1.5
50
270
51
10
0
ARC
8
DRAWING
62
18
6
CONTINUOUS
10
28.2075252
20
13.7431332
40
1.5
50
290
51
30
0
ARC
8
DRAWING
62
18
6
CONTINUOUS
10
21.80597489
20
22.56186267
40
1.5
50
310
51
50
0
ARC
8
DRAWING
62
18
6
CONTINUOUS
10
12.77430219
20
28.65929852
40
1.5
50
330
51
70
0
ARC
8
DRAWING
62
18
6
CONTINUOUS
10
2.201860119
20
31.3
40
1.5
50
350
51
90
0
LINE
8
DRAWING
62
18
6
CONTINUOUS
10
-7.158947151
20
30.42593181
11
-5.999058512
21
23.84787646
0
LINE
8
DRAWING
62
18
6
CONTINUOUS
10
-17.13349137
20
26.14251947
11
-13.79372514
21
20.35787468
0
LINE
8
DRAWING
62
18
6
CONTINUOUS
10
-25.04148366
20
18.70593346
11
-19.92466494
21
14.41241276
0
LINE
8
DRAWING
62
18
6
CONTINUOUS
10
-29.92910346
20
9.013135808
11
-23.6523961
21
6.728601159
0
LINE
8
DRAWING
62
18
6
CONTINUOUS
10
-31.20683167
20
-1.766779045
11
-24.52729921
21
-1.766779045
0
LINE
8
DRAWING
62
18
6
CONTINUOUS
10
-28.72055541
20
-12.33359427
11
-22.44384805
21
-10.04905962
0
LINE
8
DRAWING
62
18
6
CONTINUOUS
10
-22.77015631
20
-21.412796
11
-17.65333758
21
-17.1192753
0
LINE
8
DRAWING
62
18
6
CONTINUOUS
10
-14.0733403
20
-27.90929852
11
-10.73357407
21
-22.12465372
0
LINE
8
DRAWING
62
18
6
CONTINUOUS
10
-3.679071748
20
-31.03952773
11
-2.519183109
21
-24.46147238
0
LINE
8
DRAWING
62
18
6
CONTINUOUS
10
7.158947151
20
-30.42593181
11
5.999058512
21
-23.84787646
0
LINE
8
DRAWING
62
18
6
CONTINUOUS
10
17.13349137
20
-26.14251947
11
13.79372514
21
-20.35787468
0
LINE
8
DRAWING
62
18
6
CONTINUOUS
10
25.04148366
20
-18.70593346
11
19.92466494
21
-14.41241276
0
LINE
8
DRAWING
62
18
6
CONTINUOUS
10
29.92910346
20
-9.013135808
11
23.6523961
21
-6.728601159
0
LINE
8
DRAWING
62
18
6
CONTINUOUS
10
31.20683167
20
1.766779045
11
24.52729921
21
1.766779045
0
LINE
8
DRAWING
62
18
6
CONTINUOUS
10
28.72055541
20
12.33359427
11
22.44384805
21
10.04905962
0
LINE
8
DRAWING
62
18
6
CONTINUOUS
10
22.77015631
20
21.412796
11
17.65333758
21
17.1192753
0
LINE
8
DRAWING
62
18
6
CONTINUOUS
10
14.0733403
20
27.90929852
11
10.73357407
21
22.12465372
0
LINE
8
DRAWING
62
18
6
CONTINUOUS
10
3.679071748
20
31.03952773
11
2.519183109
21
24.46147238
0
LINE
8
DRAWING
62
18
6
CONTINUOUS
10
-13.28733237
20
30.06883746
11
-9.149188996
21
31.57499848
0
LINE
8
DRAWING
62
18
6
CONTINUOUS
10
-22.77015628
20
23.71092936
11
-19.39671089
21
26.54158614
0
LINE
8
DRAWING
62
18
6
CONTINUOUS
10
-29.50656329
20
14.49313323
11
-27.30470318
21
18.3068668
0
LINE
8
DRAWING
62
18
6
CONTINUOUS
10
-32.68404329
20
3.527251348
11
-31.9193453
21
7.864069143
0
LINE
8
DRAWING
62
18
6
CONTINUOUS
10
-31.91934531
20
-7.864069107
11
-32.6840433
21
-3.527251312
0
LINE
8
DRAWING
62
18
6
CONTINUOUS
10
-27.3047032
20
-18.30686677
11
-29.5065633
21
-14.4931332
0
LINE
8
DRAWING
62
18
6
CONTINUOUS
10
-19.39671092
20
-26.54158611
11
-22.77015631
21
-23.71092933
0
LINE
8
DRAWING
62
18
6
CONTINUOUS
10
-9.14918903
20
-31.57499846
11
-13.28733241
21
-30.06883745
0
LINE
8
DRAWING
62
18
6
CONTINUOUS
10
2.201860082
20
-32.8
11
-2.201860119
21
-32.8
0
LINE
8
DRAWING
62
18
6
CONTINUOUS
10
13.28733237
20
-30.06883746
11
9.149188996
21
-31.57499848
0
LINE
8
DRAWING
62
18
6
CONTINUOUS
10
22.77015628
20
-23.71092936
11
19.39671089
21
-26.54158614
0
LINE
8
DRAWING
62
18
6
CONTINUOUS
10
29.50656329
20
-14.49313323
11
27.30470318
21
-18.3068668
0
LINE
8
DRAWING
62
18
6
CONTINUOUS
10
32.68404329
20
-3.527251348
11
31.9193453
21
-7.864069143
0
LINE
8
DRAWING
62
18
6
CONTINUOUS
10
31.91934531
20
7.864069107
11
32.6840433
21
3.527251312
0
LINE
8
DRAWING
62
18
6
CONTINUOUS
10
27.3047032
20
18.30686677
11
29.5065633
21
14.4931332
0
LINE
8
DRAWING
62
18
6
CONTINUOUS
10
19.39671092
20
26.54158611
11
22.77015631
21
23.71092933
0
LINE
8
DRAWING
62
18
6
CONTINUOUS
10
9.14918903
20
31.57499846
11
13.28733241
21
30.06883745
0
LINE
8
DRAWING
62
18
6
CONTINUOUS
10
-2.201860082
20
32.8
11
2.201860119
21
32.8
0
LINE
8
DRAWING
62
18
6
CONTINUOUS
10
-10.73357405
20
22.12465377
11
-14.07334026
21
27.90929853
0
LINE
8
DRAWING
62
18
6
CONTINUOUS
10
-17.65333759
20
17.11927535
11
-22.77015628
21
21.41279603
0
LINE
8
DRAWING
62
18
6
CONTINUOUS
10
-22.44384807
20
10.04905967
11
-28.72055539
21
12.3335943
0
LINE
8
DRAWING
62
18
6
CONTINUOUS
10
-24.52729924
20
1.766779081
11
-31.20683166
21
1.766779081
0
LINE
8
DRAWING
62
18
6
CONTINUOUS
10
-23.65239614
20
-6.728601137
11
-29.92910346
21
-9.013135772
0
LINE
8
DRAWING
62
18
6
CONTINUOUS
10
-19.92466499
20
-14.41241275
11
-25.04148368
21
-18.70593343
0
LINE
8
DRAWING
62
18
6
CONTINUOUS
10
-13.79372519
20
-20.35787469
11
-17.1334914
21
-26.14251945
0
LINE
8
DRAWING
62
18
6
CONTINUOUS
10
-5.999058553
20
-23.84787649
11
-7.158947185
21
-30.4259318
0
LINE
8
DRAWING
62
18
6
CONTINUOUS
10
2.51918308
20
-24.46147242
11
3.679071712
21
-31.03952773
0
LINE
8
DRAWING
62
18
6
CONTINUOUS
10
10.73357405
20
-22.12465377
11
14.07334026
21
-27.90929853
0
LINE
8
DRAWING
62
18
6
CONTINUOUS
10
17.65333759
20
-17.11927535
11
22.77015628
21
-21.41279603
0
LINE
8
DRAWING
62
18
6
CONTINUOUS
10
22.44384807
20
-10.04905967
11
28.72055539
21
-12.3335943
0
LINE
8
DRAWING
62
18
6
CONTINUOUS
10
24.52729924
20
-1.766779081
11
31.20683166
21
-1.766779081
0
LINE
8
DRAWING
62
18
6
CONTINUOUS
10
23.65239614
20
6.728601137
11
29.92910346
21
9.013135772
0
LINE
8
DRAWING
62
18
6
CONTINUOUS
10
19.92466499
20
14.41241275
11
25.04148368
21
18.70593343
0
LINE
8
DRAWING
62
18
6
CONTINUOUS
10
13.79372519
20
20.35787469
11
17.1334914
21
26.14251945
0
LINE
8
DRAWING
62
18
6
CONTINUOUS
10
5.999058553
20
23.84787649
11
7.158947185
21
30.4259318
0
LINE
8
DRAWING
62
18
6
CONTINUOUS
10
-2.51918308
20
24.46147242
11
-3.679071712
21
31.03952773
0
ARC
8
DRAWING
62
18
6
CONTINUOUS
10
-1.776356839e-015
20
-3.552713679e-015
40
22.5
50
112.8277396
51
127.1722604
0
ARC
8
DRAWING
62
18
6
CONTINUOUS
10
-7.105427358e-015
20
-7.105427358e-015
40
22.5
50
132.8277396
51
147.1722604
0
ARC
8
DRAWING
62
18
6
CONTINUOUS
10
-7.105427358e-015
20
-1.154631946e-014
40
22.5
50
152.8277396
51
167.1722604
0
ARC
8
DRAWING
62
18
6
CONTINUOUS
10
-9.237055565e-014
20
3.808089495e-015
40
22.5
50
172.8277396
51
187.1722604
0
ARC
8
DRAWING
62
18
6
CONTINUOUS
10
0
20
0
40
22.5
50
192.8277396
51
207.1722604
0
ARC
8
DRAWING
62
18
6
CONTINUOUS
10
7.105427358e-015
20
-7.105427358e-015
40
22.5
50
212.8277396
51
227.1722604
0
ARC
8
DRAWING
62
18
6
CONTINUOUS
10
0
20
0
40
22.5
50
232.8277396
51
247.1722604
0
ARC
8
DRAWING
62
18
6
CONTINUOUS
10
-3.108624469e-015
20
0
40
22.5
50
252.8277396
51
267.1722604
0
ARC
8
DRAWING
62
18
6
CONTINUOUS
10
-1.110223025e-014
20
-3.552713679e-015
40
22.5
50
272.8277396
51
287.1722604
0
ARC
8
DRAWING
62
18
6
CONTINUOUS
10
-1.421085472e-014
20
-3.552713679e-015
40
22.5
50
292.8277396
51
307.1722604
0
ARC
8
DRAWING
62
18
6
CONTINUOUS
10
7.105427358e-015
20
7.105427358e-015
40
22.5
50
312.8277396
51
327.1722604
0
ARC
8
DRAWING
62
18
6
CONTINUOUS
10
0
20
8.881784197e-016
40
22.5
50
332.8277396
51
347.1722604
0
ARC
8
DRAWING
62
18
6
CONTINUOUS
10
9.592326933e-014
20
6.882930281e-015
40
22.5
50
352.8277396
51
7.172260404
0
ARC
8
DRAWING
62
18
6
CONTINUOUS
10
0
20
-8.881784197e-016
40
22.5
50
12.8277396
51
27.1722604
0
ARC
8
DRAWING
62
18
6
CONTINUOUS
10
-7.105427358e-015
20
3.552713679e-015
40
22.5
50
32.8277396
51
47.1722604
0
ARC
8
DRAWING
62
18
6
CONTINUOUS
10
3.552713679e-015
20
0
40
22.5
50
52.8277396
51
67.1722604
0
ARC
8
DRAWING
62
18
6
CONTINUOUS
10
-1.33226763e-015
20
0
40
22.5
50
72.8277396
51
87.1722604
0
ARC
8
DRAWING
62
18
6
CONTINUOUS
10
9.325873407e-015
20
3.552713679e-015
40
22.5
50
92.8277396
51
107.1722604
0
CIRCLE
8
DRAWING
62
18
6
CONTINUOUS
10
0
20
0
40
45
0
ENDSEC
0
EOF
