  0
SECTION
  2
HEADER
  9
$INSBASE
 10
0.0000
 20
0.0000
  9
$EXTMIN
 10
-53.535533905932986
 20
-53.535533905932873
  9
$EXTMAX
 10
53.535533905932986
 20
53.535533905932873
  9
$LIMMIN
 10
-53.535533905932986
 20
-53.535533905932873
  9
$LIMMAX
 10
53.535533905932986
 20
53.535533905932873
  9
$TEXTSTYLE
  7
STANDARD
  9
$CLAYER
  8
default
  0
ENDSEC
  0
SECTION
  2
TABLES
  0
TABLE
  2
LTYPE
 70
4948253
  0
LTYPE
  2
CONTINUOUS
 70
    64
  3
Solid line
 72
    65
 73
     0
 40
0.0
  0
ENDTAB
  0
TABLE
  2
LAYER
 70
     5
  0
LAYER
  2
default
 70
    64
 62
     7
  6
CONTINUOUS
  0
LAYER
  2
layer1
 70
    64
 62
     7
  6
CONTINUOUS
  0
ENDTAB
  0
TABLE
  2
STYLE
 70
     1
  0
STYLE
  2
STANDARD
 70
     0
 40
0.0
 41
1.0
 50
0.0
 71
     0
 42
0.2
  3
txt
  4

  0
ENDTAB
  0
TABLE
  2
VIEW
 70
     0
  0
ENDTAB
  0
ENDSEC
  0
SECTION
  2
BLOCKS
  0
ENDSEC
  0
SECTION
  2
ENTITIES
  0
LINE
  8
default
 10
-10.000000000000002
 20
22.912878474779198
 30
0.0
 11
-10.000000000000002
 21
26.153393661244039
 31
0.0
  0
LINE
  8
default
 10
22.912878474779198
 20
9.9999999999999964
 30
0.0
 11
26.153393661244046
 21
9.9999999999999964
 31
0.0
  0
LINE
  8
default
 10
-22.912878474779198
 20
-10.000000000000002
 30
0.0
 11
-26.153393661244042
 21
-10.000000000000002
 31
0.0
  0
LINE
  8
default
 10
9.9999999999999964
 20
-22.912878474779202
 30
0.0
 11
9.9999999999999964
 21
-26.153393661244042
 31
0.0
  0
LINE
  8
default
 10
-38.729833462074168
 20
10.000000000000004
 30
0.0
 11
-26.153393661244042
 21
10.000000000000002
 31
0.0
  0
LINE
  8
default
 10
10
 20
38.729833462074168
 30
0.0
 11
9.9999999999999982
 21
26.153393661244042
 31
0.0
  0
LINE
  8
default
 10
38.729833462074168
 20
-10.000000000000007
 30
0.0
 11
26.153393661244042
 21
-10.000000000000004
 31
0.0
  0
LINE
  8
default
 10
-10.000000000000005
 20
-38.729833462074168
 30
0.0
 11
-10.000000000000004
 21
-26.153393661244042
 31
0.0
  0
LINE
  8
default
 10
-10.000000000000002
 20
26.153393661244039
 30
0.0
 11
-10
 21
38.729833462074168
 31
0.0
  0
LINE
  8
default
 10
26.153393661244046
 20
9.9999999999999964
 30
0.0
 11
38.729833462074168
 21
9.9999999999999929
 31
0.0
  0
LINE
  8
default
 10
-26.153393661244042
 20
10.000000000000002
 30
0.0
 11
-22.912878474779198
 21
10.000000000000002
 31
0.0
  0
LINE
  8
default
 10
9.9999999999999982
 20
26.153393661244042
 30
0.0
 11
9.9999999999999982
 21
22.912878474779198
 31
0.0
  0
LINE
  8
default
 10
-26.153393661244042
 20
-10.000000000000002
 30
0.0
 11
-38.729833462074168
 21
-9.9999999999999982
 31
0.0
  0
LINE
  8
default
 10
9.9999999999999964
 20
-26.153393661244042
 30
0.0
 11
9.9999999999999947
 21
-38.729833462074168
 31
0.0
  0
LINE
  8
default
 10
26.153393661244042
 20
-10.000000000000004
 30
0.0
 11
22.912878474779198
 21
-10.000000000000004
 31
0.0
  0
LINE
  8
default
 10
-10.000000000000004
 20
-26.153393661244042
 30
0.0
 11
-10.000000000000004
 21
-22.912878474779198
 31
0.0
  0
LINE
  8
default
 10
-28.284271247461898
 20
28.284271247461902
 30
0.0
 11
-19.798989873223327
 21
19.798989873223331
 31
0.0
  0
LINE
  8
default
 10
-28.284271247461906
 20
-28.284271247461895
 30
0.0
 11
-19.798989873223334
 21
-19.798989873223324
 31
0.0
  0
LINE
  8
default
 10
19.798989873223324
 20
-19.798989873223334
 30
0.0
 11
28.284271247461895
 21
-28.284271247461906
 31
0.0
  0
LINE
  8
default
 10
19.798989873223331
 20
19.798989873223327
 30
0.0
 11
28.284271247461902
 21
28.284271247461898
 31
0.0
  0
LINE
  8
layer1
 10
9.9999999999999964
 20
21.817424229271431
 30
0.0
 11
9.9999999999999964
 21
19.595917942265427
 31
0.0
  0
LINE
  8
layer1
 10
-10
 20
-19.595917942265427
 30
0.0
 11
-10
 21
-21.817424229271428
 31
0.0
  0
LINE
  8
layer1
 10
19.052558883257653
 20
10.999999999999998
 30
0.0
 11
9.9999999999999929
 21
1.4665420394590507
 31
0.0
  0
LINE
  8
layer1
 10
-19.052558883257653
 20
-10.999999999999996
 30
0.0
 11
-10
 21
-1.4665420394590543
 31
0.0
  0
LINE
  8
layer1
 10
-10
 20
21.817424229271428
 30
0.0
 11
-10
 21
-1.4665420394590543
 31
0.0
  0
LINE
  8
layer1
 10
9.9999999999999929
 20
1.4665420394590507
 30
0.0
 11
9.9999999999999929
 21
-21.817424229271431
 31
0.0
  0
ARC
  8
default
 10
-1.7763568394002505e-015
 20
7.1054273576010019e-015
 30
0
 40
24.999999999999993
 50
66.421821521798165
 51
113.57817847820185
  0
ARC
  8
default
 10
0
 20
1.4210854715202004e-014
 30
0
 40
25.000000000000011
 50
246.42182152179817
 51
293.57817847820183
  0
ARC
  8
layer1
 10
1.7763568394002505e-015
 20
7.1054273576010019e-015
 30
0
 40
23.999999999999993
 50
65.375681647835933
 51
114.6243183521641
  0
ARC
  8
layer1
 10
0
 20
3.5527136788005009e-015
 30
0
 40
24
 50
245.3756816478359
 51
294.62431835216404
  0
ARC
  8
default
 10
7.1054273576010019e-015
 20
5.3290705182007514e-015
 30
0
 40
39.999999999999993
 50
14.477512185929912
 51
45
  0
ARC
  8
default
 10
3.5527136788005009e-015
 20
3.5527136788005009e-015
 30
0
 40
39.999999999999986
 50
45
 51
75.522487814070075
  0
ARC
  8
default
 10
5.3290705182007514e-015
 20
-7.1054273576010019e-015
 30
0
 40
40.000000000000007
 50
104.47751218592992
 51
135
  0
ARC
  8
default
 10
-3.5527136788005009e-015
 20
0
 30
0
 40
40
 50
135
 51
165.52248781407008
  0
ARC
  8
default
 10
0
 20
1.7763568394002505e-015
 30
0
 40
40
 50
194.4775121859299
 51
224.99999999999997
  0
ARC
  8
default
 10
3.5527136788005009e-015
 20
-3.5527136788005009e-015
 30
0
 40
40
 50
224.99999999999997
 51
255.52248781407008
  0
ARC
  8
default
 10
1.7763568394002505e-015
 20
7.1054273576010019e-015
 30
0
 40
40
 50
284.47751218592992
 51
315
  0
ARC
  8
default
 10
3.5527136788005009e-015
 20
3.5527136788005009e-015
 30
0
 40
40
 50
315
 51
345.52248781407008
  0
ARC
  8
default
 10
1.4210854715202004e-014
 20
-7.1054273576010019e-015
 30
0
 40
27.999999999999996
 50
20.924832427638332
 51
45.000000000000028
  0
ARC
  8
default
 10
-3.5527136788005009e-015
 20
0
 30
0
 40
27.999999999999996
 50
44.999999999999993
 51
69.075167572361678
  0
ARC
  8
default
 10
5.3290705182007514e-015
 20
-7.1054273576010019e-015
 30
0
 40
28.000000000000004
 50
110.92483242763834
 51
135
  0
ARC
  8
default
 10
-7.1054273576010019e-015
 20
-3.5527136788005009e-015
 30
0
 40
27.999999999999996
 50
134.99999999999997
 51
159.07516757236166
  0
ARC
  8
default
 10
-1.0658141036401503e-014
 20
5.3290705182007514e-015
 30
0
 40
27.999999999999989
 50
200.92483242763834
 51
225
  0
ARC
  8
default
 10
-3.5527136788005009e-015
 20
-2.4868995751603507e-014
 30
0
 40
27.999999999999975
 50
224.99999999999994
 51
249.07516757236164
  0
ARC
  8
default
 10
-3.5527136788005009e-015
 20
-3.5527136788005009e-015
 30
0
 40
27.999999999999989
 50
290.92483242763831
 51
315
  0
ARC
  8
default
 10
1.4210854715202004e-014
 20
3.5527136788005009e-015
 30
0
 40
27.999999999999986
 50
314.99999999999994
 51
339.07516757236164
  0
ARC
  8
default
 10
0
 20
0
 30
0
 40
50
 50
0
 51
180
  0
ARC
  8
default
 10
0
 20
0
 30
0
 40
50
 50
180
 51
0
  0
ARC
  8
layer1
 10
-3.5527136788005009e-015
 20
-8.8817841970012523e-015
 30
0
 40
22.000000000000007
 50
30.000000000000011
 51
62.964308210587731
  0
ARC
  8
layer1
 10
7.1054273576010019e-015
 20
3.5527136788005009e-015
 30
0
 40
22.000000000000007
 50
209.99999999999997
 51
242.96430821058772
  0
ARC
  8
default
 10
2.347661972734727e-005
 20
-3.5527136788005009e-015
 30
0
 40
24.999978483324369
 50
336.42180000000002
 51
23.578199999999999
  0
ARC
  8
default
 10
-2.3476619723794556e-005
 20
0
 30
0
 40
24.999978483324373
 50
156.42180000000002
 51
203.57819999999998
  0
ENDSEC
  0
EOF
